<svg version="1.1" xmlns="http://www.w3.org/2000/svg" xmlns:xlink="http://www.w3.org/1999/xlink" width="32.5453" height="44.65254" viewBox="0,0,32.5453,44.65254"><g transform="translate(-223.73199,-157.6941)"><g data-paper-data="{&quot;isPaintingLayer&quot;:true}" fill="#ffffff" fill-rule="nonzero" stroke="#000000" stroke-width="2.5" stroke-linecap="round" stroke-linejoin="miter" stroke-miterlimit="10" stroke-dasharray="" stroke-dashoffset="0" style="mix-blend-mode: normal"><path d="M234.82102,172.3553v19.57143c0,0 -4.08003,-0.00172 -6.83971,0c-1.50724,0.00094 -2.93792,2.50434 -2.99931,4.79075c-0.06832,2.54457 0.07281,4.4067 2.82909,4.37886c3.36874,-0.03403 14.42635,-0.13416 23.65958,-0.06452c1.1994,0.00904 3.5256,-1.011 3.55662,-3.9451c0.06992,-2.61934 -1.31171,-5.00548 -3.1311,-4.84145c-1.3579,0.12242 -5.97678,0 -5.97678,0c0,0 -0.16318,-17.93136 0,-29.40644c0.02173,-1.52758 -1.74781,-3.78824 -3.89474,-3.89473c-1.68148,-0.08341 -1.67957,-0.01542 -3.05263,0c-1.26424,0.0142 -13.12294,7.79072 -13.68421,8.94737c-0.42365,0.87305 -0.33125,2.0102 -0.19426,2.76591c0.08794,0.48511 0.42426,1.04304 0.62891,1.24769c0.30208,0.30208 1.18024,1.18024 1.81333,1.81333c0.39817,0.39817 1.17741,0.69939 1.49293,0.69939c0.20565,0 0.56698,0 0.90667,0c0.43044,0 1.22196,-0.20112 1.55187,-0.36874c0.70708,-0.35924 3.33373,-1.69375 3.33373,-1.69375z"/></g></g></svg>