<svg version="1.1" xmlns="http://www.w3.org/2000/svg" xmlns:xlink="http://www.w3.org/1999/xlink" width="32.7198" height="45.37364" viewBox="0,0,32.7198,45.37364"><g transform="translate(-223.82672,-156.89576)"><g data-paper-data="{&quot;isPaintingLayer&quot;:true}" fill="#ffffff" fill-rule="nonzero" stroke="#000000" stroke-width="2.5" stroke-linecap="round" stroke-linejoin="miter" stroke-miterlimit="10" stroke-dasharray="" stroke-dashoffset="0" style="mix-blend-mode: normal"><path d="M237.80608,158.14575c0.64223,-0.00722 3.82706,-0.06025 7.2392,0.68503c3.12652,0.6829 5.90616,3.25063 7.51792,5.76064c0.51319,0.79919 1.97573,5.06783 1.42555,8.43591c-1.03339,3.2775 -2.0697,3.83606 -3.25978,4.41495c-1.24309,0.60467 -2.82242,1.51531 -2.82242,1.51531c0,0 1.36102,0.43443 2.91533,1.54411c2.00802,1.4336 4.33866,3.99419 4.47407,8.20103c-0.13274,4.68583 -2.87355,11.93111 -11.69851,12.31668c-2.4266,0.10602 -11.51165,1.52207 -15.23748,-1.16222c-2.0522,-1.47851 -3.12056,-2.5455 -3.28323,-4.28593c-0.06401,-0.68481 -0.11286,-2.45634 0.0159,-2.88657c0.32811,-1.09627 1.80004,-2.69338 3.93232,-3.06127c2.73112,-0.47121 4.75317,2.88592 9.52861,2.71483c3.2793,-0.11749 6.05008,-1.93146 6.08862,-3.24025c0.09563,-3.24791 -1.12326,-4.97332 -5.16064,-4.84824c-6.03661,0.18702 -7.70443,-1.42923 -8.07819,-2.7671c-0.4779,-1.71061 0.742,-3.49769 1.1693,-4.66552c0.60201,-1.64531 4.19695,-1.52655 5.87844,-1.44284c1.43617,0.07149 2.50185,-0.35881 3.25413,-1.04429c1.38523,-1.26219 1.7079,-3.3895 1.32456,-4.84201c-0.51085,-1.93567 -2.35566,-2.89286 -4.60604,-2.72314c-2.52519,0.19045 -4.37445,2.05938 -8.79465,2.8941c-4.26626,0.80565 -5.44081,-4.35478 -3.41946,-7.08351c2.26146,-3.05286 11.06223,-4.42219 11.72979,-4.42969z"/></g></g></svg>