<svg version="1.1" xmlns="http://www.w3.org/2000/svg" xmlns:xlink="http://www.w3.org/1999/xlink" width="35.95764" height="46.06921" viewBox="0,0,35.95764,46.06921"><g transform="translate(-222.38772,-156.97981)"><g data-paper-data="{&quot;isPaintingLayer&quot;:true}" fill="#ffffff" fill-rule="nonzero" stroke="#000000" stroke-width="2.5" stroke-linecap="round" stroke-linejoin="miter" stroke-miterlimit="10" stroke-dasharray="" stroke-dashoffset="0" style="mix-blend-mode: normal"><path d="M223.63773,184.91595c0,0 15.79789,-22.43714 16.22154,-23.31019c0.56127,-1.15665 2.70568,-3.36174 3.96992,-3.37594c1.37306,-0.01542 1.37115,-0.08341 3.05263,0c2.14693,0.10649 3.91647,2.36715 3.89474,3.89473c-0.16318,11.47508 0,22.97787 0,22.97787c0,0 1.66201,0.03886 3.54821,0.06739c1.81939,-0.16403 2.83713,1.94179 2.76721,4.56113c-0.08148,2.75715 -1.83351,3.43206 -3.0593,3.63972c-1.7928,0.30372 -3.4507,0.27955 -3.4507,0.27955c0,0 0.09601,2.35447 0.05591,3.92329c-0.02385,0.93335 -0.56829,4.21992 -5.36166,4.22551c-2.26988,-0.05063 -4.50466,-1.87049 -4.58192,-4.03699c-0.10735,-3.01034 -0.03502,-4.36089 -0.03502,-4.36089c0,0 -12.2934,0.63958 -15.30458,-0.1779c-0.33595,-0.09121 -1.10042,-0.57667 -1.64149,-1.35873c-0.76246,-1.10204 -0.9235,-2.01706 -0.9032,-3.49788c0.02088,-1.5238 0.8277,-3.45068 0.8277,-3.45068zM232.80089,185.61402c0.82843,0 7.01246,-0.02848 7.73311,-0.05068c0.19577,-0.00603 0,-11.75 0,-11.75c0,0 -8.46508,11.80068 -7.73311,11.80068z"/></g></g></svg>