<svg version="1.1" xmlns="http://www.w3.org/2000/svg" xmlns:xlink="http://www.w3.org/1999/xlink" width="33.88775" height="44.78571" viewBox="0,0,33.88775,44.78571"><g transform="translate(-222.99601,-157.48257)"><g data-paper-data="{&quot;isPaintingLayer&quot;:true}" fill="#ffffff" fill-rule="nonzero" stroke="#000000" stroke-width="2.5" stroke-linecap="round" stroke-linejoin="miter" stroke-miterlimit="10" stroke-dasharray="" stroke-dashoffset="0" style="mix-blend-mode: normal"><path d="M226.81744,158.73257c1.74772,-0.23184 25.42857,0 25.42857,0c0,0 2.46687,1.15121 3.28572,2.85714c0.81885,1.70593 0.14286,4.28571 0.14286,4.28571l-17.28571,32.57143c0,0 -2.48363,2.11172 -4.42857,2.57143c-1.94494,0.45971 -2.29135,0.04386 -3.42857,-0.71429c-1.13722,-0.75815 -2.00359,-1.75964 -2.57143,-3.28571c-0.56784,-1.52608 -0.24788,-1.83022 0.28571,-2.85714c0.5336,-1.02692 14.85714,-26.28571 14.85714,-26.28571l-15.71429,-0.14286c0,0 -1.92227,-0.48089 -2.57143,-1.71429c-0.64916,-1.2334 -1.01358,-2.36778 -0.57143,-3.57143c0.44216,-1.20365 0.82371,-3.48245 2.57143,-3.71429z"/></g></g></svg>