<svg version="1.1" xmlns="http://www.w3.org/2000/svg" xmlns:xlink="http://www.w3.org/1999/xlink" width="33.60937" height="44.36596" viewBox="0,0,33.60937,44.36596"><g transform="translate(-223.19532,-157.43948)"><g data-paper-data="{&quot;isPaintingLayer&quot;:true}" fill="#ffffff" fill-rule="nonzero" stroke="#000000" stroke-width="2.5" stroke-linecap="round" stroke-linejoin="miter" stroke-miterlimit="10" stroke-dasharray="" stroke-dashoffset="0" style="mix-blend-mode: normal"><path d="M255.54726,181.26668c0.14501,6.21067 -1.86422,10.13038 -3.5233,13.06175c-0.96995,1.71376 -4.10321,4.85825 -8.75131,6.22701c-4.6481,1.36876 -9.1875,1.164 -13.40402,-0.26082c-2.86286,-0.9674 -7.37733,-5.99767 -4.50155,-9.30098c0.63185,-0.72579 2.08473,-2.12752 4.701,-1.56864c2.2989,0.49109 3.04829,2.94325 6.75523,2.76619c4.68882,-0.22396 9.03402,-4.394 8.03738,-9.55011c-1.28289,0.96685 -2.31169,2.10419 -3.75334,2.85043c-1.43656,0.74361 -3.28578,1.09777 -4.67721,1.11894c-4.51831,0.06876 -9.0297,-3.79171 -10.29255,-6.23243c-2.66244,-5.14568 -1.603,-12.28967 -0.47953,-14.03925c1.61176,-2.51001 5.78293,-6.72589 8.90946,-7.40879c3.41214,-0.74528 7.99697,-0.24779 8.6392,-0.24058c0,0 7.40538,0.78054 10.40758,8.7223c1.34343,3.55378 1.78797,7.64432 1.93298,13.85499zM239.33603,167.33072c-2.62336,0 -4.84524,2.88855 -4.84524,5.5119c0,2.62336 2.22188,5.32143 4.84524,5.32143c2.62336,0 5.03572,-2.60283 5.03572,-5.22619c0,-2.62336 -2.41236,-5.60714 -5.03572,-5.60714z" data-paper-data="{&quot;index&quot;:null}"/></g></g></svg>