<svg version="1.1" xmlns="http://www.w3.org/2000/svg" xmlns:xlink="http://www.w3.org/1999/xlink" width="33.82171" height="43.98752" viewBox="0,0,33.82171,43.98752"><g transform="translate(-223.60103,-157.86154)"><g data-paper-data="{&quot;isPaintingLayer&quot;:true}" fill="#ffffff" fill-rule="nonzero" stroke="#000000" stroke-width="2.5" stroke-linecap="round" stroke-linejoin="miter" stroke-miterlimit="10" stroke-dasharray="" stroke-dashoffset="0" style="mix-blend-mode: normal"><path d="M230.70943,178.67616c0,0 -2.95488,-2.12619 -3.64958,-3.19238c-1.18821,-1.8236 -2.26658,-5.02774 -2.20642,-6.97281c0.10412,-3.36669 4.24114,-8.03066 8.88924,-9.39943c4.6481,-1.36876 11.11854,-0.61227 15.33506,0.81254c2.86286,0.9674 5.56431,4.60188 5.85228,6.51174c0.50735,3.36477 0.7285,5.51298 -0.09868,7.42371c-1.5522,3.58549 -5.05704,5.29149 -5.05704,5.29149c0,0 4.42573,2.62004 5.30286,3.87015c1.61303,2.29893 1.45985,6.41689 1.1077,8.92772c-0.64624,3.47553 -4.40361,7.55347 -8.08187,8.65017c-4.65352,1.29701 -14.93055,1.09283 -18.22886,-1.2814c-2.20096,-1.58433 -6.06422,-6.21686 -5.92137,-9.13135c0.17381,-8.24344 6.75668,-11.51016 6.75668,-11.51016zM240.57584,192.61213c2.62336,0 5.94869,-1.92303 5.94869,-4.54639c0,-2.62336 -3.46327,-4.90763 -6.08662,-4.90763c-2.62336,0 -6.2771,2.05111 -6.2771,4.67446c0,2.62336 3.79167,4.77956 6.41503,4.77956zM240.06037,175.56971c2.62336,0 4.75,-2.12664 4.75,-4.75c0,-2.62336 -2.12664,-4.75 -4.75,-4.75c-2.62336,0 -4.75,2.12664 -4.75,4.75c0,2.62336 2.12664,4.75 4.75,4.75z" data-paper-data="{&quot;index&quot;:null}"/></g></g></svg>