<svg version="1.1" xmlns="http://www.w3.org/2000/svg" xmlns:xlink="http://www.w3.org/1999/xlink" width="33.01144" height="44.4014" viewBox="0,0,33.01144,44.4014"><g transform="translate(-223.2292,-157.69519)"><g data-paper-data="{&quot;isPaintingLayer&quot;:true}" fill="#ffffff" fill-rule="nonzero" stroke="#000000" stroke-width="2.5" stroke-linecap="round" stroke-linejoin="miter" stroke-miterlimit="10" stroke-dasharray="" stroke-dashoffset="0" style="mix-blend-mode: normal"><path d="M225.39534,196.71696c-2.02135,-2.72873 -0.6468,-7.98916 3.61946,-7.18351c4.4202,0.83472 3.96946,1.90365 11.59465,2.3941c1.58258,0.11936 3.94798,-2.08841 3.99827,-4.69107c0.04452,-2.30447 -0.05192,-3.99864 -2.73945,-4.63063c-2.58262,-0.60731 -5.12441,-0.39189 -12.00392,2.3034c-1.14984,0.45049 -2.51166,0.18434 -3.13077,-0.65178c-0.91618,-1.23732 -0.90085,-3.76586 -0.90085,-3.76586c0,0 -0.11901,-13.14571 -0.1804,-15.43212c-0.06832,-2.54457 -0.22719,-6.1067 2.52909,-6.07886c3.36874,0.03403 11.72635,0.03416 20.95958,-0.03548c1.1994,-0.00904 3.5256,1.011 3.55662,3.9451c0.06992,2.61934 -1.31171,5.00548 -3.1311,4.84145c-1.3579,-0.12242 -10.44575,0 -10.44575,0l-2.92182,-0.04413c0,0 -0.23184,3.60687 -0.12409,6.54075c6.30054,-1.49431 14.04886,-1.17955 17.20988,4.92972c2.66244,5.14568 1.68765,11.99338 0.56418,13.74296c-1.61176,2.51001 -5.39139,6.57774 -8.51792,7.26064c-3.41214,0.74528 -7.99697,0.69224 -8.6392,0.68503c0,0 -9.035,-1.07684 -11.29646,-4.1297z" data-paper-data="{&quot;index&quot;:null}"/></g></g></svg>