<svg version="1.1" xmlns="http://www.w3.org/2000/svg" xmlns:xlink="http://www.w3.org/1999/xlink" width="14.28592" height="21.65738" viewBox="0,0,14.28592,21.65738"><g transform="translate(-247.71133,-184.78983)"><g data-paper-data="{&quot;isPaintingLayer&quot;:true}" fill="#ffffff" fill-rule="nonzero" stroke="#000000" stroke-width="2.5" stroke-linecap="round" stroke-linejoin="miter" stroke-miterlimit="10" stroke-dasharray="" stroke-dashoffset="0" style="mix-blend-mode: normal"><path d="M253.54294,186.02739c1.94751,-0.27683 1.71507,-0.29186 3.8985,0.30189c1.73616,0.47212 3.30581,4.90566 3.30581,4.90566c0,0 0.55322,3.10497 0,5.20755c-0.55322,2.10258 -0.42902,2.64884 -2.87462,5.28302c-2.4456,2.63417 -2.60496,2.62117 -4.67125,3.4717c-0.13933,0.05735 -1.00882,0.21898 -1.6529,-2.03774c-0.33044,-1.15779 2.58716,-5.58491 2.58716,-5.58491c0,0 -2.56541,-0.59691 -3.737,-1.81132c-1.17159,-1.21441 -1.42213,-2.43816 -1.43731,-4.30189c-0.01633,-2.00473 1.63446,-4.52587 3.44954,-5.0566z"/></g></g></svg>