<svg version="1.1" xmlns="http://www.w3.org/2000/svg" xmlns:xlink="http://www.w3.org/1999/xlink" width="32.50387" height="44.67442" viewBox="0,0,32.50387,44.67442"><g transform="translate(-224.11166,-158.15251)"><g data-paper-data="{&quot;isPaintingLayer&quot;:true}" fill="#ffffff" fill-rule="nonzero" stroke="#000000" stroke-width="2.5" stroke-linecap="round" stroke-linejoin="miter" stroke-miterlimit="10" stroke-dasharray="" stroke-dashoffset="0" style="mix-blend-mode: normal"><path d="M225.36166,168.57439c0.15606,-0.6503 3.5511,-7.46404 8.1992,-8.83281c1.73908,-0.51212 2.54319,-1.57958 6.13259,-1.40634c3.88326,-0.1419 2.91138,0.10977 5.55029,1.00149c2.86286,0.9674 5.65901,3.27943 7.37823,6.42198c0.98039,1.79207 2.78493,6.05676 2.74284,12.67648c-0.03562,5.6015 -0.30971,12.21331 -2.66612,15.36114c-3.77668,6.60596 -9.44709,7.72738 -12.95144,7.7806c-2.55649,0.01688 -6.6842,0.93639 -13.00975,-7.27171c-2.03676,-2.98269 -3.07583,-8.84367 -3.05687,-13.92914c0.01882,-5.04794 1.086,-9.32226 1.68103,-11.80169zM239.77692,192.72043c2.62336,0 5.30683,-2.4451 5.52232,-12.02465c0.24677,-10.96979 -2.5937,-13.08155 -5.21705,-13.08155c-2.62336,0 -5.88332,1.00646 -5.92927,13.02228c-0.03797,9.92744 3.00064,12.08391 5.624,12.08391z" data-paper-data="{&quot;index&quot;:null}"/></g></g></svg>