<svg version="1.1" xmlns="http://www.w3.org/2000/svg" xmlns:xlink="http://www.w3.org/1999/xlink" width="32.55965" height="45.06596" viewBox="0,0,32.55965,45.06596"><g transform="translate(-223.82385,-157.46719)"><g data-paper-data="{&quot;isPaintingLayer&quot;:true}" fill="#ffffff" fill-rule="nonzero" stroke="#000000" stroke-width="2.5" stroke-linecap="round" stroke-linejoin="miter" stroke-miterlimit="10" stroke-dasharray="" stroke-dashoffset="0" style="mix-blend-mode: normal"><path d="M237.42513,158.71718c0.64223,-0.00721 3.82706,-0.06025 7.2392,0.68503c3.12653,0.6829 5.90616,3.25063 7.51792,5.76064c1.2953,2.01718 1.92795,10.24972 -1.60746,15.51802c-3.88732,4.16474 -10.62069,11.75127 -10.62069,11.75127c0,0 10.68785,0.12242 12.04575,0c1.81939,-0.16403 3.20102,2.22211 3.1311,4.84145c-0.03102,2.9341 -2.35722,3.95414 -3.55662,3.9451c-9.23323,-0.06964 -20.29084,0.03049 -23.65958,0.06452c-2.75628,0.02784 -2.89741,-1.83429 -2.82909,-4.37886c0.06139,-2.28641 2.72345,-5.89419 2.72345,-5.89419l8.35695,-8.13793c0,0 8.12188,-6.60205 6.48276,-12.8128c-0.51085,-1.93567 -2.35566,-2.89286 -4.60604,-2.72314c-2.52519,0.19045 -4.37445,2.05938 -8.79465,2.8941c-4.26626,0.80565 -5.44081,-4.35478 -3.41946,-7.08351c2.26146,-3.05286 11.06223,-4.42219 11.72979,-4.42969z"/></g></g></svg>